<svg xmlns="http://www.w3.org/2000/svg" xmlns:xlink="http://www.w3.org/1999/xlink" viewBox="0 0 2816.15 2800"><defs><style>.cls-1{fill:none;}.cls-2{isolation:isolate;}.cls-3{opacity:0.3;fill:url(#linear-gradient);}.cls-4{fill:url(#linear-gradient-2);}.cls-10,.cls-5{fill:#fff;}.cls-5{mix-blend-mode:soft-light;}.cls-6{fill:url(#linear-gradient-3);}.cls-7{fill:url(#linear-gradient-4);}.cls-8{fill:url(#linear-gradient-5);}.cls-9{fill:#1f5aa9;}.cls-11{clip-path:url(#clip-path);}.cls-12{fill:url(#linear-gradient-6);}.cls-13{fill:url(#linear-gradient-7);}.cls-14{fill:url(#linear-gradient-8);}.cls-15{opacity:0.8;}.cls-16{fill:url(#linear-gradient-9);}.cls-17{fill:url(#linear-gradient-10);}.cls-18{fill:url(#linear-gradient-11);}.cls-19{fill:url(#linear-gradient-12);}.cls-20{fill:url(#linear-gradient-13);}.cls-21{fill:url(#linear-gradient-14);}.cls-22{fill:url(#linear-gradient-15);}.cls-23{fill:url(#linear-gradient-16);}.cls-24{fill:url(#linear-gradient-17);}.cls-25{fill:url(#linear-gradient-18);}.cls-26{fill:url(#linear-gradient-19);}.cls-27{fill:url(#linear-gradient-20);}.cls-28{fill:url(#linear-gradient-21);}.cls-29{fill:url(#linear-gradient-22);}.cls-30{fill:url(#linear-gradient-23);}.cls-31{fill:url(#linear-gradient-24);}.cls-32{fill:url(#linear-gradient-25);}.cls-33{fill:url(#linear-gradient-26);}.cls-34{fill:url(#linear-gradient-27);}.cls-35{fill:url(#linear-gradient-28);}.cls-36{fill:url(#linear-gradient-29);}.cls-37{fill:url(#linear-gradient-30);}.cls-38{fill:url(#linear-gradient-31);}</style><linearGradient id="linear-gradient" x1="3605.59" y1="4068.93" x2="1151.76" y2="1021.42" gradientUnits="userSpaceOnUse"><stop offset="0" stop-color="#b37cff"/><stop offset="1" stop-color="#f895e7"/></linearGradient><linearGradient id="linear-gradient-2" x1="7355.58" y1="628.57" x2="8641.57" y2="628.57" gradientTransform="translate(-6496.85 -1384.15) rotate(15.99)" gradientUnits="userSpaceOnUse"><stop offset="0" stop-color="#a737d5"/><stop offset="1" stop-color="#ef497a"/></linearGradient><linearGradient id="linear-gradient-3" x1="-2411.13" y1="7561.87" x2="-833.64" y2="7561.87" gradientTransform="translate(-6539.1 -329.23) rotate(-84.19)" gradientUnits="userSpaceOnUse"><stop offset="0" stop-color="#ce1567"/><stop offset="1" stop-color="#7a1dbc"/></linearGradient><linearGradient id="linear-gradient-4" x1="930.7" y1="1873.85" x2="2693.82" y2="1873.85" gradientTransform="translate(28.22 -27.65) rotate(-1.25)" gradientUnits="userSpaceOnUse"><stop offset="0" stop-color="#2b3582"/><stop offset="1" stop-color="#150e42"/></linearGradient><linearGradient id="linear-gradient-5" x1="1191.98" y1="834.65" x2="4901.59" y2="6038.52" gradientTransform="translate(5.32 -4.86) rotate(-0.24)" gradientUnits="userSpaceOnUse"><stop offset="0" stop-color="#fdf53f"/><stop offset="1" stop-color="#d93c65"/></linearGradient><clipPath id="clip-path" transform="translate(-446.93 -455)"><circle class="cls-1" cx="1529.1" cy="1222.65" r="297.13"/></clipPath><linearGradient id="linear-gradient-6" x1="1240.48" y1="2148.53" x2="1925.98" y2="-220.16" gradientTransform="translate(2238.01 -629.88) rotate(74.87)" xlink:href="#linear-gradient-5"/><linearGradient id="linear-gradient-7" x1="1342.79" y1="2178.14" x2="2028.29" y2="-190.55" gradientTransform="matrix(1, 0, 0, 1, 0, 0)" xlink:href="#linear-gradient-5"/><linearGradient id="linear-gradient-8" x1="1638.33" y1="1090.13" x2="1249.02" y2="2699.78" gradientTransform="matrix(1, 0, 0, 1, 0, 0)" xlink:href="#linear-gradient-5"/><linearGradient id="linear-gradient-9" x1="3631.42" y1="-393.21" x2="1961.51" y2="1449.67" gradientUnits="userSpaceOnUse"><stop offset="0" stop-color="#53d8ff"/><stop offset="1" stop-color="#3840f7"/></linearGradient><linearGradient id="linear-gradient-10" x1="2751.23" y1="503.49" x2="1081.32" y2="2632.46" xlink:href="#linear-gradient-9"/><linearGradient id="linear-gradient-11" x1="1732.26" y1="1651.33" x2="2849.96" y2="686.65" gradientTransform="matrix(1, 0, 0, 1, 0, 0)" xlink:href="#linear-gradient-2"/><linearGradient id="linear-gradient-12" x1="-2103.53" y1="3078.13" x2="-2721.54" y2="3750.34" gradientTransform="matrix(-1, 0, 0, 1, 571.17, 0)" gradientUnits="userSpaceOnUse"><stop offset="0" stop-color="#cb236d"/><stop offset="1" stop-color="#4c246d"/></linearGradient><linearGradient id="linear-gradient-13" x1="-2304.13" y1="3128.06" x2="-2249.23" y2="3128.06" gradientTransform="matrix(-1, 0, 0, 1, 571.17, 0)" gradientUnits="userSpaceOnUse"><stop offset="0" stop-color="#f9b776"/><stop offset="1" stop-color="#f47960"/></linearGradient><linearGradient id="linear-gradient-14" x1="-2434.29" y1="2708.32" x2="-2252.79" y2="2708.32" gradientTransform="matrix(-1, 0, 0, 1, 571.17, 0)" xlink:href="#linear-gradient-4"/><linearGradient id="linear-gradient-15" x1="-2242.17" y1="2950.67" x2="-2860.17" y2="3622.89" xlink:href="#linear-gradient-12"/><linearGradient id="linear-gradient-16" x1="-2501.97" y1="3125.24" x2="-2454.57" y2="3125.24" xlink:href="#linear-gradient-13"/><linearGradient id="linear-gradient-17" x1="-2553.05" y1="2702.38" x2="-2295.37" y2="2702.38" gradientTransform="matrix(-1, 0, 0, 1, 571.17, 0)" xlink:href="#linear-gradient-4"/><linearGradient id="linear-gradient-18" x1="2948.82" y1="1830.06" x2="2653.55" y2="2624.22" gradientTransform="matrix(1, 0, 0, 1, 0, 0)" xlink:href="#linear-gradient-3"/><linearGradient id="linear-gradient-19" x1="-2078.24" y1="1695.95" x2="-1797.8" y2="1695.95" xlink:href="#linear-gradient-13"/><linearGradient id="linear-gradient-20" x1="12308.05" y1="1648.94" x2="12496.23" y2="2077.1" gradientTransform="translate(-9876.61)" xlink:href="#linear-gradient-13"/><linearGradient id="linear-gradient-21" x1="-1799.14" y1="1506.35" x2="-1720.62" y2="1385.62" xlink:href="#linear-gradient-13"/><linearGradient id="linear-gradient-22" x1="3173.69" y1="1913.66" x2="2878.42" y2="2707.83" gradientTransform="matrix(1, 0, 0, 1, 0, 0)" xlink:href="#linear-gradient-3"/><linearGradient id="linear-gradient-23" x1="-2691.91" y1="2093.19" x2="-2337" y2="2093.19" xlink:href="#linear-gradient-13"/><linearGradient id="linear-gradient-24" x1="-2229.63" y1="1840.86" x2="-2034.49" y2="2653.98" gradientTransform="matrix(-1, 0, 0, 1, 571.17, 0)" gradientUnits="userSpaceOnUse"><stop offset="0" stop-color="#9cfffb"/><stop offset="1" stop-color="#9bfffa"/></linearGradient><linearGradient id="linear-gradient-25" x1="-2107.45" y1="1712.69" x2="-2149.01" y2="1895.2" gradientTransform="matrix(-1, 0, 0, 1, 571.17, 0)" xlink:href="#linear-gradient-9"/><linearGradient id="linear-gradient-26" x1="-2129.2" y1="1789.25" x2="-2149.08" y2="1908.51" gradientTransform="matrix(-1, 0, 0, 1, 571.17, 0)" xlink:href="#linear-gradient-9"/><linearGradient id="linear-gradient-27" x1="-2363.35" y1="2055.98" x2="-2252.79" y2="2055.98" xlink:href="#linear-gradient-13"/><linearGradient id="linear-gradient-28" x1="-2419.39" y1="1713.77" x2="-2279.07" y2="1713.77" xlink:href="#linear-gradient-13"/><linearGradient id="linear-gradient-29" x1="-7116.57" y1="-3098.18" x2="-7169" y2="-3271.12" gradientTransform="matrix(-0.75, -0.67, -0.67, 0.75, -4555.17, -803.17)" xlink:href="#linear-gradient-13"/><linearGradient id="linear-gradient-30" x1="-7163.87" y1="-3399.51" x2="-7120.01" y2="-3149.33" gradientTransform="matrix(-0.75, -0.67, -0.67, 0.75, -4555.17, -803.17)" xlink:href="#linear-gradient-4"/><linearGradient id="linear-gradient-31" x1="-7170.17" y1="-3098.99" x2="-7217.34" y2="-3254.59" gradientTransform="matrix(-0.75, -0.67, -0.67, 0.75, -4555.17, -803.17)" xlink:href="#linear-gradient-13"/></defs><title>compliance</title><g class="cls-2"><g id="Illustration"><path class="cls-3" d="M2930.53,2867.1c-56.37,59.34-109.7,97.6-151.83,127.83-495.3,355.38-1081.36,251.79-1205.92,226.5-183.93-37.36-539.46-109.57-796.5-411.85C387.39,2352.26,448,1631.77,749.59,1156.16c55.18-87,346.63-569.85,939-647.29,358.5-46.86,776.4,47.66,1079,301.2C3402.87,1342.28,3357.65,2417.44,2930.53,2867.1Z" transform="translate(-446.93 -455)"/><path class="cls-4" d="M624.8,474.78c-4.53-14,11.79-25.51,23.59-16.71,119.78,89.34,414.42,364.14,410.08,903.39C1053,2038,1219.71,2265.75,1409.63,2394.61c0,0-245.58-42.84-423.17-272.93C550.42,1556.75,705.45,723.68,624.8,474.78Z" transform="translate(-446.93 -455)"/><path class="cls-5" d="M730.86,673.85c22,72.75,42.53,145.9,60.36,219.69q27.33,110.54,47.84,222.49c13.35,74.64,25.3,149.52,34.05,224.8,9.1,75.24,14.94,150.78,20.55,226.64,6,75.79,11.67,152.18,25.15,228.22,13.38,75.89,36,151.41,71.82,220.54,8.93,17.23,18.22,34.36,28.43,50.78,9.9,16.61,20.54,32.79,31.47,48.77A828.89,828.89,0,0,0,1123,2206.6c52.8,56.91,114.22,105.74,180.28,145.46a14.69,14.69,0,0,0,15.51-24.95l0,0c-15.79-10.12-31.45-20.4-46.6-31.35-7.66-5.35-15.07-11-22.58-16.57-7.3-5.82-14.82-11.36-21.92-17.4a773.7,773.7,0,0,1-81-76.85c-50.41-54.77-92.9-117.35-127.2-183.34a739.81,739.81,0,0,1-42.7-102.93,839.8,839.8,0,0,1-27.29-108.54c-13.65-73.74-19.86-149.3-26.43-225s-13.9-151.82-24.24-227.48q-7.6-56.76-17.24-113.21c-3.11-18.83-6.57-37.59-10-56.36q-5.43-28.1-11.2-56.13-23.42-112-53.68-222.37c-20.55-73.41-43-146.25-68.3-218.11a3.94,3.94,0,0,0-7.49,2.45Z" transform="translate(-446.93 -455)"/><path class="cls-6" d="M1190.32,2846.21c-4.7,26.7-35.15,39.92-58.06,25.43-126.44-80-463.47-338.43-524.49-851.28-51.52-433.07-120.62-663-159.22-765.22-8.16-21.61,16-41.08,35.42-28.54C698,1365,1360.74,1878.61,1190.32,2846.21Z" transform="translate(-446.93 -455)"/><path class="cls-5" d="M1154.19,2852.74a9.53,9.53,0,0,1-1.61,1.26,10.58,10.58,0,0,1-14.61-3.25c-3.56-5.6-356.61-566.22-455.45-1165.15a10.59,10.59,0,1,1,20.89-3.45c98.12,594.57,448.89,1151.68,452.42,1157.24A10.56,10.56,0,0,1,1154.19,2852.74Z" transform="translate(-446.93 -455)"/><path class="cls-7" d="M1127.06,511a132.58,132.58,0,0,0-121,131.82c-1.19,419.63-3.16,1867,24.19,2379.34a103,103,0,0,0,101.74,97.5c268.81,2.89,1042,8.21,1481-19.87a173.37,173.37,0,0,0,162.47-173.19c-.54-440.41-7.57-1679-67.9-2245.16a141.49,141.49,0,0,0-129.77-126.08C2284.64,532.48,1506.1,478,1127.06,511Z" transform="translate(-446.93 -455)"/><path class="cls-8" d="M1114,752.75c-5.28,359-20.31,1553.05,5.93,1993.77,3.83,64.42,53.87,115.27,115.66,117.43,254.38,8.86,906.72,26,1278.43-14.88,66.93-7.37,118.09-65.39,119.87-135.64,9.3-366.31,34.42-1478.47,8.92-1914.26-4.07-69.52-57.19-125-123.76-129.48-275.45-18.56-982.75-61.36-1298.84-35C1160.87,639.59,1114.91,690.6,1114,752.75Z" transform="translate(-446.93 -455)"/><path class="cls-9" d="M1728.63,573.37a18.62,18.62,0,0,0,18,18.23c48.95,1.49,186.84,5.71,248.47,7.93A18.62,18.62,0,0,0,2014,577c-.21-.37-1.78-15.61-17.35-16.69-41.69-2.9-167.47-10.72-250.59-5.92C1729,555.33,1728.08,574.74,1728.63,573.37Z" transform="translate(-446.93 -455)"/><circle class="cls-10" cx="1082.18" cy="767.65" r="333.64"/><g class="cls-11"><circle class="cls-12" cx="1530.39" cy="1146.76" r="130.21" transform="translate(-422.95 1869.83) rotate(-74.87)"/><path class="cls-13" d="M1332.61,1537.78h414.84c25.44,0,40.68-32.86,27-57.94-35.24-64.53-109-159.32-236.64-155-123.06,4.13-196,89.75-232.67,151.16C1289.56,1502,1305.43,1537.78,1332.61,1537.78Z" transform="translate(-446.93 -455)"/></g><rect class="cls-14" x="1147.16" y="2077.4" width="464.31" height="167.35" rx="24.66"/><g class="cls-15"><rect class="cls-10" x="947.7" y="1379.27" width="963.27" height="92.14" rx="13.52"/><circle class="cls-10" cx="824.14" cy="1425.06" r="55.86"/><rect class="cls-10" x="947.7" y="1552.18" width="963.27" height="92.14" rx="13.52"/><circle class="cls-10" cx="1271.07" cy="2052.97" r="55.86" transform="translate(-1405.92 2523.78) rotate(-80.78)"/><rect class="cls-10" x="947.7" y="1725.09" width="963.27" height="92.14" rx="13.52"/><circle class="cls-10" cx="824.14" cy="1770.88" r="55.86"/><rect class="cls-10" x="947.7" y="1897.99" width="963.27" height="92.14" rx="13.52"/><circle class="cls-10" cx="824.14" cy="1943.79" r="55.86"/></g><rect class="cls-10" x="770.47" y="1199.18" width="758.35" height="92.14" rx="12"/><path class="cls-16" d="M2811.6,817.29a84.23,84.23,0,0,0-48-70.59L2406.12,576.9a84.36,84.36,0,0,0-72.36,0L1976.25,746.7a84.23,84.23,0,0,0-48,70.59c-33.54,518.36,298.83,707.22,407.78,754.93a84.44,84.44,0,0,0,67.76,0C2512.77,1524.51,2845.14,1335.65,2811.6,817.29Z" transform="translate(-446.93 -455)"/><path class="cls-10" d="M2261.8,651.85a8.48,8.48,0,0,1-3.64-16.15l84.47-40.12a8.49,8.49,0,0,1,7.28,15.33L2265.44,651A8.33,8.33,0,0,1,2261.8,651.85Z" transform="translate(-446.93 -455)"/><path class="cls-10" d="M1955.61,931.63a8.48,8.48,0,0,1-8.47-8.2c-1.14-33.83-.54-69.09,1.77-104.81a63.59,63.59,0,0,1,36.21-53.25l240.5-114.22a8.48,8.48,0,1,1,7.28,15.32L1992.4,780.7a46.62,46.62,0,0,0-26.56,39c-2.27,35.16-2.86,69.86-1.74,103.14a8.48,8.48,0,0,1-8.2,8.76Z" transform="translate(-446.93 -455)"/><path class="cls-17" d="M2725.15,837.52a21,21,0,0,0-12-17.94L2379,660.85a21,21,0,0,0-18,0l-334.2,158.73a21,21,0,0,0-12,17.94c-9.88,193.36,34.78,354.7,132.84,479.74,74.77,95.34,162.23,146.43,213.48,170.27a21.12,21.12,0,0,0,17.79,0c51.24-23.84,138.7-74.93,213.47-170.27C2690.37,1192.22,2735,1030.88,2725.15,837.52Z" transform="translate(-446.93 -455)"/><path class="cls-18" d="M2157.71,1049.46h0a58,58,0,0,1,80.45,19.82L2315.85,1201a18.61,18.61,0,0,0,33.19-2.24l174.78-415.65c8.72-20.74,39.43-14.53,39.63,7.95,1.15,125.83-26.45,365.71-222.59,570.68,0,0-111.79-40.37-205.7-234.07A60.8,60.8,0,0,1,2157.71,1049.46Z" transform="translate(-446.93 -455)"/><path class="cls-19" d="M2870.05,3128.21s6.4,36.23,9.54,72.1a24.71,24.71,0,0,1-23.64,26.77c-47.76,2-149.93,5.86-186.59,4.22a8,8,0,0,1-7.07-11h0a17.94,17.94,0,0,1,9.2-9.7L2840.25,3133Z" transform="translate(-446.93 -455)"/><path class="cls-20" d="M2875.3,3106.92l-5.15,43.34s-29.56,13.76-49.75-1.74l12.24-48.29Z" transform="translate(-446.93 -455)"/><path class="cls-21" d="M2871.43,2292.14c2.22,11.31,11.92,564.77-47.24,812.8a8.42,8.42,0,0,0,4.94,9.79,146.32,146.32,0,0,0,48.18,9.79,14.51,14.51,0,0,0,14.39-10.4c16.91-57.55,97.94-345.87,108.51-621.29,11.81-307.76,0-10.48,0-10.48l-6.93-190.24Z" transform="translate(-446.93 -455)"/><path class="cls-22" d="M3064.18,3147.11s10.19,18.29,20.06,66.9a15.08,15.08,0,0,1-13.27,18c-15.77,1.55-40,3.55-59.5,3.41a15,15,0,0,1-14.88-16.77c2.15-17.74,8.86-46.84,29.6-69.53Z" transform="translate(-446.93 -455)"/><path class="cls-23" d="M3073.13,3091.37l-12,65.54s-11.88,8.83-35.38,2.43l5.73-70.52Z" transform="translate(-446.93 -455)"/><path class="cls-24" d="M3105.59,2309.12c48.39,292-10.49,721.73-30.35,805.83a13.11,13.11,0,0,1-10.59,10c-8.87,1.47-23.46,2.67-37.85-1.51a12,12,0,0,1-8.64-11.07c-2.66-68,2.13-485.43-42.95-650.4a37.53,37.53,0,0,0-14.46-20.68l-87.5-62.21-6.71-100.55Z" transform="translate(-446.93 -455)"/><path class="cls-25" d="M2797.28,1755.82c145-2.4,305,38.07,305,38.07,43.23,252.2,7.56,543.1,7.56,543.1-112.26,29.43-238.89-18-238.89-18-18.66-105.42-105.71-402.09-105.71-402.09-70.85-8.79-129.21-29.23-177.27-56.25,36.66-42.5,53.94-96.57,61.45-128.54C2700.68,1748.05,2752.55,1756.56,2797.28,1755.82Z" transform="translate(-446.93 -455)"/><path class="cls-26" d="M2369,1542.24c14.24-17.21,32.27-9.07,32.27-9.07,21.34,90.14,133.22,163.22,248.17,198.94-7.51,32-24.79,86-61.45,128.54C2397.19,1753.39,2369,1542.24,2369,1542.24Z" transform="translate(-446.93 -455)"/><path class="cls-27" d="M2372.42,1546.61c-1.49,4.74,15.77,12,25.93-7.42.36-9.29,6-49.08.46-56.65-29.56-40.3-86.87-90.81-86.87-90.81-9.68,9.56-1.7,18.94-1.7,18.94l27.8,29c-5.82,10.51-12.91,19.38-16.23,32.09a38.94,38.94,0,0,0,3.88,28.67c4.88,8.8,11.54,20.22,17.83,29.17C2355.44,1546.48,2372.42,1546.61,2372.42,1546.61Z" transform="translate(-446.93 -455)"/><path class="cls-28" d="M2350.2,1458.43l25.33,21.47,8,21.38-22.59,25.06s-7.6-42.42-13.24-51.61S2344.94,1461.11,2350.2,1458.43Z" transform="translate(-446.93 -455)"/><path class="cls-29" d="M3046.66,1934.3l55.61-140.41s135.44,92,157.72,208.71c-25.59,1.88-72.16,8.54-117.74,31.55C3132.23,1979.06,3046.66,1934.3,3046.66,1934.3Z" transform="translate(-446.93 -455)"/><path class="cls-30" d="M2928.3,2066.41s152.06,85.94,203.37,12.56c10.65-15.24,13.2-30.38,10.58-44.82,45.58-23,92.15-29.67,117.74-31.55,6.71,35.17,3.16,72.58-17.51,110.39-89.87,164.41-334.31-9.09-334.31-9.09Z" transform="translate(-446.93 -455)"/><path class="cls-31" d="M2946.57,2175.14l-83-289.83a8.47,8.47,0,0,0-7.15-6.09c-15-1.75-58.61-6.68-108.92-10.93-60.59-5.13-131-9.28-173-5.75a8.48,8.48,0,0,0-6.93,12.21c23.91,48.38,122.27,245.17,171.53,309.63a8.47,8.47,0,0,0,6.84,3.36l192.55-1.79A8.48,8.48,0,0,0,2946.57,2175.14Z" transform="translate(-446.93 -455)"/><path class="cls-32" d="M2738.91,1843.16l-60.17-10a4.32,4.32,0,0,0-4.82,5.61l6,18a4.33,4.33,0,0,0,3.53,2.93l57.9,7.73a4.32,4.32,0,0,0,4.78-5.26l-3.69-15.76A4.32,4.32,0,0,0,2738.91,1843.16Z" transform="translate(-446.93 -455)"/><path class="cls-33" d="M2784,1894.1l-5-25.82a6,6,0,0,0-5.26-4.81l-121.53-12.33a6,6,0,0,0-6.4,7.33l7.73,32.17a5.94,5.94,0,0,0,5.5,4.57l118.76,6A6,6,0,0,0,2784,1894.1Z" transform="translate(-446.93 -455)"/><path class="cls-34" d="M2926.52,2105.11s11.56-47.53,6.89-64.4-13.69-38.55-43.81-33.73-65.64,17.5-65.64,17.5,1.79,22,24.68,14.89l-14.19,11s2,17.59,21.36,8.19l-13.2,14.57s8.3,14.44,22.52,5.18S2886.18,2110.84,2926.52,2105.11Z" transform="translate(-446.93 -455)"/><path class="cls-35" d="M2944.15,1638.1l46.14,133.42a4.81,4.81,0,0,1-2.19,5.79c-12.58,7-57.89,27.06-112.49-7.56a22.67,22.67,0,0,1-10.43-16.17l-14.94-115.48Z" transform="translate(-446.93 -455)"/><path class="cls-36" d="M2843.76,1514.54s-50.66,95.37-44.17,133.89,69.29,35.76,124.12,4.47l38.31-103Z" transform="translate(-446.93 -455)"/><path class="cls-37" d="M2921.29,1602.33a3.92,3.92,0,0,1-1.72-5.75c4.06-6.2,11.67-18.85,14.09-29.93,0,0,9.11-5.83-23.18-13.56s-80.44-19.72-90.56-47.21c-9.87-26.79,16.06-94.18,57.43-40.49a3.92,3.92,0,0,0,6.22,0c6.78-8.83,24.61-27.15,49.36-16,23.16,10.39,25.77,27.36,25.46,35.92a3.9,3.9,0,0,0,4.63,4c11.71-2.24,39.81-4.15,52.92,24.67,10.81,23.75,3.79,37.19-2.61,43.76a3.92,3.92,0,0,0,1.68,6.51c7.7,2.36,17.63,8.88,16.64,26.91-1.38,24.93-29.25,22.74-37.18,21.6A3.93,3.93,0,0,0,2991,1614c-6.81,7.53-37.46,39.5-70.64,43.36a4,4,0,0,1-4.16-5.24l14.36-41.74a3.94,3.94,0,0,0-2.13-4.89Z" transform="translate(-446.93 -455)"/><path class="cls-38" d="M2915.51,1608.26s36.08-24.75,38.71-3.91-32.48,30.19-49.88,22.42Z" transform="translate(-446.93 -455)"/></g></g></svg>